<svg xmlns="http://www.w3.org/2000/svg" width="100" height="100"><path fill="#ADADAD" d="M82.045 74.887H71.556a1.086 1.086 0 1 0 0 2.172h9.403v.613l-15.818 3.004H33.433l-15.817-3.004v-.613h49.906a1.085 1.085 0 1 0 0-2.172h-7.007a21.068 21.068 0 0 0 7.444-8.15 11.41 11.41 0 0 0 4.336.844c6.362 0 11.539-5.176 11.539-11.54 0-6.362-5.177-11.538-11.539-11.538-.689 0-1.372.063-2.044.183v-.622a2.523 2.523 0 0 0-2.521-2.521h-5.138a1.086 1.086 0 1 0 0 2.173h5.138a.35.35 0 0 1 .35.348v1.848H30.495v-1.848a.35.35 0 0 1 .349-.348h27.712a1.086 1.086 0 1 0 0-2.173H30.844a2.524 2.524 0 0 0-2.522 2.521v13.121c0 1.639.192 3.264.565 4.84-1.768-.526-3.875-.111-5.797 1.203a1.087 1.087 0 1 0 1.227 1.793c1.26-.862 2.582-1.199 3.675-.981l-3.957 5.921a1.086 1.086 0 0 0 1.807 1.208l3.958-5.922c.411.609.636 1.406.646 2.336v.007c.015 1.435-.487 2.987-1.412 4.372a8.564 8.564 0 0 1-1.856 2.013 6.856 6.856 0 0 1-1.53.915h-3.432a2.316 2.316 0 0 1-.117-.074c-1.81-1.207-1.924-4.332-.261-7.112a1.086 1.086 0 1 0-1.865-1.115c-1.06 1.772-1.577 3.747-1.457 5.56.068 1.029.337 1.957.78 2.742h-2.767c-.6 0-1.086.485-1.086 1.086v2.598c0 .522.371.971.884 1.067l15.975 3.034v3.215c0 .6.486 1.087 1.087 1.087h31.798c.6 0 1.086-.487 1.086-1.087v-3.214l15.977-3.035c.513-.097.884-.545.884-1.067v-2.598a1.09 1.09 0 0 0-1.089-1.09zM70.25 57.184v-5.14a4.456 4.456 0 0 1 2.044-.495 4.497 4.497 0 0 1 4.492 4.491 4.498 4.498 0 0 1-4.492 4.492 4.453 4.453 0 0 1-2.224-.592c.118-.907.18-1.827.18-2.756zm-.592 4.978a6.626 6.626 0 0 0 2.636.543 6.672 6.672 0 0 0 6.665-6.664 6.673 6.673 0 0 0-6.665-6.665c-.7 0-1.389.109-2.044.321v-2.69l.001-.011-.001-.011V46.9a9.376 9.376 0 0 1 2.045-.226c5.164 0 9.365 4.201 9.365 9.365 0 5.165-4.201 9.368-9.365 9.368a9.293 9.293 0 0 1-3.445-.658c.325-.841.594-1.706.808-2.587zm-39.163-14.08h37.583v9.102c0 5.02-1.955 9.738-5.503 13.288a18.919 18.919 0 0 1-6.973 4.415h-12.63c-.351-.125-.699-.26-1.044-.406.797-1.253 1.102-2.646.839-3.976l-.001-.006-.001-.005c-.347-1.729-1.568-3.152-3.44-4.006-1.754-.801-3.898-1.008-6.037-.582a10.08 10.08 0 0 0-.578.13 18.758 18.758 0 0 1-2.215-8.853v-9.101zm.345 25.083c1.006-1.505 1.613-3.192 1.748-4.827a9.29 9.29 0 0 1 1.124-.302c2.764-.549 5.429.283 6.491 1.865l-6.981 1.388a1.087 1.087 0 0 0 .423 2.131l6.986-1.389c-.14.715-.538 1.431-1.176 2.089l-.005.006a6.731 6.731 0 0 1-.895.761H29.42c.523-.514.998-1.09 1.42-1.722zm33.259 11.636H34.474V82.85h29.625v1.951z"/><g fill="#ADADAD"><path d="M52.114 34.532c-.02.013-.036.021-.048.03l.048-.03zM52.066 34.561c-.028.019-.025.016 0 0z"/><path d="M54.466 24.671a7.403 7.403 0 0 0 2.306-5.386 7.417 7.417 0 0 0-3.486-6.307 1.088 1.088 0 0 0-1.157 1.84 5.253 5.253 0 0 1 2.471 4.467 5.253 5.253 0 0 1-2.471 4.466c-.664.417-.664 1.421 0 1.839 1.547.974 2.471 2.644 2.471 4.467a5.252 5.252 0 0 1-2.485 4.476c.004-.004.009-.006.014-.009a1.086 1.086 0 0 0 1.157 1.839 7.413 7.413 0 0 0 3.486-6.306 7.405 7.405 0 0 0-2.306-5.386zm-1.772 9.495c.027-.016.03-.018 0 0zm-.14.089l.065-.04a3.28 3.28 0 0 1-.065.04z"/></g><path fill="#ADADAD" d="M60.931 23.751a1.086 1.086 0 1 0-1.157 1.84c1.547.973 2.471 2.643 2.471 4.466s-.924 3.492-2.471 4.467a1.086 1.086 0 1 0 1.157 1.838 7.41 7.41 0 0 0 3.486-6.305 7.413 7.413 0 0 0-3.486-6.306zM45.014 23.751a1.086 1.086 0 0 0-1.157 1.839c1.548.974 2.472 2.644 2.472 4.467s-.924 3.492-2.471 4.467a1.086 1.086 0 1 0 1.156 1.838 7.408 7.408 0 0 0 3.486-6.305 7.41 7.41 0 0 0-3.486-6.306z"/></svg>