<svg xmlns="http://www.w3.org/2000/svg" width="100" height="100"><g fill="#ADADAD"><path d="M29.772 75.214c-.322 0-.641.131-.869.359-.229.23-.361.547-.361.871s.133.641.361.87.547.36.869.36c.324 0 .643-.131.871-.36s.359-.546.359-.87-.131-.641-.359-.871a1.239 1.239 0 0 0-.871-.359zM46.725 64.379a1.235 1.235 0 0 0 1.23-1.23 1.235 1.235 0 0 0-1.23-1.23c-.324 0-.641.132-.871.36-.229.229-.359.547-.359.87s.131.642.359.87c.23.228.547.36.871.36zM46.725 68.297c.324 0 .641-.132.869-.36.23-.23.361-.547.361-.87 0-.325-.131-.642-.361-.871a1.235 1.235 0 0 0-1.74 0 1.238 1.238 0 0 0 0 1.741c.23.228.547.36.871.36zM47.956 71.208c0-.323-.131-.641-.361-.87-.229-.229-.545-.36-.869-.36s-.641.132-.871.36c-.229.229-.359.547-.359.87s.131.641.359.87a1.235 1.235 0 0 0 2.101-.87z"/><path d="M80.123 47.263H67.326c-.68 0-1.23.551-1.23 1.23v11.18a16.087 16.087 0 0 0-2.34-.932l-9.23-2.91v-1.998a1.228 1.228 0 0 0-1.094-1.222 12.859 12.859 0 0 0 5.391-6.733c.037.003.072.005.109.005a5.666 5.666 0 0 0 5.66-5.66 5.669 5.669 0 0 0-5.076-5.63v-1.858a12.16 12.16 0 0 0 2.928-7.923v-4.544c0-.68-.551-1.23-1.23-1.23H45.079c-6.145 0-11.145 5-11.145 11.146v4.409a5.668 5.668 0 0 0-5.076 5.63 5.666 5.666 0 0 0 5.66 5.66c.037 0 .072-.002.109-.005a12.85 12.85 0 0 0 5.391 6.733 1.23 1.23 0 0 0-1.094 1.222v1.979L29.7 58.738c-3.309 1.024-6.146 3.041-8.203 5.83a16 16 0 0 0-3.145 9.561v6.677c0 .68.551 1.23 1.23 1.23h57.607a1.23 1.23 0 1 0 0-2.46h-2.234v-6.362c3.623-.591 6.398-3.741 6.398-7.528V48.493c.001-.68-.55-1.23-1.23-1.23zm-48.804-7.041a3.205 3.205 0 0 1 2.615-3.145v4.646c0 .563.037 1.117.107 1.662a3.202 3.202 0 0 1-2.722-3.163zm30.812 0a3.203 3.203 0 0 1-2.723 3.164c.07-.545.107-1.1.107-1.662v-4.646a3.202 3.202 0 0 1 2.616 3.144zm-25.736-7.048v-2.991c0-4.789 3.896-8.686 8.684-8.686h14.904v3.313c0 5.377-4.375 9.751-9.751 9.751H36.395v-1.387zm0 8.55v-4.701h13.836c2.525 0 4.875-.771 6.824-2.09v6.791c0 5.696-4.633 10.33-10.33 10.33-5.695 0-10.33-4.634-10.33-10.33zm6.084 12.065c1.328.47 2.758.726 4.246.726s2.918-.256 4.248-.727l-4.248 2.542-4.246-2.541zm1.85 3.975l-2.943 1.761v-3.521l2.943 1.76zm7.735-1.761v3.521l-2.943-1.761 2.943-1.76zm-13.14 2.392v3.3a1.231 1.231 0 0 0 1.863 1.056l5.938-3.554 5.939 3.554a1.235 1.235 0 0 0 1.238.015c.385-.219.623-.628.623-1.071v-3.283l3.033.957-10.833 16.152-10.84-16.162 3.039-.964zm23.523 21.18H20.813v-5.446a13.571 13.571 0 0 1 7.73-12.298v9.91a1.23 1.23 0 1 0 2.46 0V60.907l2.438-.773 12.262 18.281a1.229 1.229 0 0 0 2.042 0l12.257-18.276 2.443.771v18.665h.002zm10.047 0h-7.586V61.832c.404.195.803.41 1.188.646v3.207c0 3.788 2.775 6.938 6.398 7.528v6.362zm6.399-13.89c0 2.85-2.318 5.168-5.168 5.168s-5.168-2.318-5.168-5.168v-8.886h10.336v8.886zm0-11.347H68.557v-4.614h10.336v4.614z"/><path d="M76.221 61.56a1.234 1.234 0 0 0 1.23-1.23 1.231 1.231 0 0 0-2.46 0 1.235 1.235 0 0 0 1.23 1.23zM71.213 64.897a1.235 1.235 0 0 0 1.23-1.23 1.233 1.233 0 0 0-1.23-1.23 1.234 1.234 0 0 0-1.23 1.23 1.233 1.233 0 0 0 1.23 1.23zM74.916 68.856c.326 0 .641-.131.871-.36a1.24 1.24 0 0 0 0-1.741 1.239 1.239 0 0 0-.871-.36c-.322 0-.639.132-.869.36-.229.23-.361.547-.361.871s.133.64.361.87c.23.23.547.36.869.36zM56.951 24.811a1.23 1.23 0 1 0-2.46 0 4.265 4.265 0 0 1-4.259 4.261 1.23 1.23 0 1 0 0 2.46c3.704 0 6.719-3.015 6.719-6.721zM45.299 29.071c-.322 0-.641.131-.869.359a1.242 1.242 0 0 0-.361.871c0 .322.133.641.361.869s.547.361.869.361c.324 0 .641-.133.871-.361.229-.229.359-.547.359-.869 0-.324-.131-.642-.359-.871a1.244 1.244 0 0 0-.871-.359z"/></g></svg>