<svg xmlns="http://www.w3.org/2000/svg" width="100" height="100"><g fill="#ADADAD"><path d="M14.137 55.053v2.786c0 .971.79 1.761 1.76 1.761h38.397c.971 0 1.762-.79 1.762-1.761v-2.786a1.76 1.76 0 0 0-1.51-1.741V42.704a5.018 5.018 0 0 0 .933-2.916v-2.05l-.001-.008-.002-.034a1.595 1.595 0 0 0-.006-.096c-.002-.013-.006-.026-.006-.038l-.019-.093a1.22 1.22 0 0 0-.043-.137l-.005-.016-.007-.019c-.002-.001-.002-.003-.003-.005l-2.148-5.393a2.119 2.119 0 0 0-1.978-1.342H28.805a1.138 1.138 0 1 0 0 2.276h22.357l1.501 3.767H16.965l1.501-3.767h5.043a1.138 1.138 0 1 0 0-2.276h-5.142a2.12 2.12 0 0 0-1.979 1.342l-2.147 5.391c-.002.004-.004.007-.004.011l-.007.015c-.002.003-.002.008-.005.013a.873.873 0 0 0-.033.106c-.004.01-.006.02-.008.029-.01.033-.015.066-.021.1l-.005.033a1.182 1.182 0 0 0-.009.104v.025l-.002.01v2.05c0 1.414.589 2.695 1.531 3.612v9.907c-.867.11-1.541.85-1.541 1.748zm33.531-16.177h5.536v.912a2.771 2.771 0 0 1-2.768 2.768 2.772 2.772 0 0 1-2.769-2.768v-.912zm-7.811 0h5.534v.912a2.771 2.771 0 0 1-2.767 2.768 2.771 2.771 0 0 1-2.768-2.768v-.912zm-7.811 0h5.536v.912a2.773 2.773 0 0 1-2.77 2.768 2.771 2.771 0 0 1-2.767-2.768v-.912zm-7.811 0h5.535v.912a2.772 2.772 0 0 1-2.769 2.768 2.771 2.771 0 0 1-2.767-2.768v-.912zm-1.136 4.098a5.031 5.031 0 0 0 7.81 0 5.034 5.034 0 0 0 7.811 0c.925 1.132 2.332 1.857 3.904 1.857s2.979-.726 3.904-1.857a5.043 5.043 0 0 0 3.907 1.857c.646 0 1.266-.123 1.835-.348v8.809H17.954v-8.616a5.039 5.039 0 0 0 5.145-1.702zm-6.675-4.098h5.537v.912c0 1.525-1.242 2.768-2.769 2.768s-2.769-1.242-2.769-2.768v-.912zm-.013 16.691h37.37v1.756h-37.37v-1.756z"/><path d="M87.905 52.507l-5.558-4.551-6.67-11.716a1.241 1.241 0 0 0-.084-.125 2.667 2.667 0 0 0-2.111-1.047H59.227c-1.22 0-2.214.993-2.214 2.213v29.164H30.422a6.95 6.95 0 0 0-1.851-3.303 6.998 6.998 0 0 0-9.888 0 6.968 6.968 0 0 0-1.852 3.303h-2.579a1.014 1.014 0 0 1-1.011-1.012v-37.56c0-.559.454-1.014 1.011-1.014h50.799c.071 0 .135.049.156.121l1.314 4.427a1.138 1.138 0 0 0 2.182-.647l-1.313-4.425a2.453 2.453 0 0 0-2.339-1.749H14.253a3.29 3.29 0 0 0-3.286 3.287v37.56a3.291 3.291 0 0 0 3.286 3.287h2.415a6.97 6.97 0 0 0 2.016 4.311 6.969 6.969 0 0 0 4.942 2.043 6.974 6.974 0 0 0 6.96-6.354H69.12a6.973 6.973 0 0 0 6.957 6.354 6.974 6.974 0 0 0 6.961-6.354h2.633a3.071 3.071 0 0 0 3.068-3.066V54.268a2.271 2.271 0 0 0-.834-1.761zM26.962 71.421a4.719 4.719 0 0 1-6.669 0 4.72 4.72 0 0 1 0-6.67 4.683 4.683 0 0 1 3.333-1.381c1.26 0 2.444.49 3.336 1.381a4.69 4.69 0 0 1 1.383 3.335c0 1.26-.492 2.444-1.383 3.335zm52.45 0a4.717 4.717 0 0 1-6.668 0 4.72 4.72 0 0 1 0-6.67 4.699 4.699 0 0 1 3.333-1.379c1.207 0 2.417.461 3.335 1.379a4.718 4.718 0 0 1 0 6.67zm7.05-11.377h-2.494a.045.045 0 0 1-.043-.035l-.549-2.377c-.003-.008-.005-.021.009-.037.013-.017.025-.017.034-.017h3.043v2.466zm0-4.741h-3.043c-.712 0-1.374.319-1.815.876a2.306 2.306 0 0 0-.444 1.966l.552 2.378a2.305 2.305 0 0 0 2.257 1.797h2.495v3.335a.791.791 0 0 1-.792.791h-2.798a6.958 6.958 0 0 0-1.851-3.303c-2.726-2.727-7.162-2.727-9.889 0a6.975 6.975 0 0 0-1.851 3.303h-9.994V37.345h14.193c.102 0 .198.04.269.109l6.724 11.813c.07.121.16.229.268.317l5.72 4.684v1.035z"/><path d="M76.077 64.419c-.979 0-1.9.383-2.594 1.074a3.65 3.65 0 0 0-1.07 2.593 3.65 3.65 0 0 0 1.07 2.593c.693.693 1.614 1.074 2.594 1.074s1.902-.381 2.595-1.072a3.65 3.65 0 0 0 1.073-2.595c0-.979-.382-1.899-1.073-2.593a3.648 3.648 0 0 0-2.595-1.074zm.984 4.651a1.38 1.38 0 0 1-.983.407c-.372 0-.721-.145-.983-.407a1.376 1.376 0 0 1-.406-.984c0-.371.143-.722.406-.983.263-.263.612-.407.983-.407s.721.145.983.407c.264.262.409.612.409.983 0 .372-.146.722-.409.984zM23.626 64.419a3.65 3.65 0 0 0-2.591 1.074 3.645 3.645 0 0 0-1.073 2.593c0 .981.382 1.901 1.073 2.595a3.643 3.643 0 0 0 2.591 1.072c.979 0 1.901-.381 2.594-1.072a3.65 3.65 0 0 0 1.073-2.595c0-.979-.382-1.9-1.073-2.593a3.645 3.645 0 0 0-2.594-1.074zm.984 4.651a1.381 1.381 0 0 1-.984.407 1.384 1.384 0 0 1-1.388-1.391 1.384 1.384 0 0 1 1.388-1.39c.372 0 .722.145.984.407.263.262.407.612.407.983.001.372-.144.722-.407.984zM72.917 40.2a1.456 1.456 0 0 0-1.263-.734h-9.38c-.801 0-1.451.652-1.451 1.453v8.817c0 .801.65 1.452 1.451 1.452h12.764c.866 0 1.642-.447 2.077-1.195.437-.748.44-1.643.012-2.396l-4.21-7.397zm2.232 8.651c-.037.063-.091.063-.111.063H63.097v-7.171h8.079l3.974 6.98c.009.017.036.063-.001.128z"/></g></svg>