<svg xmlns="http://www.w3.org/2000/svg" width="100" height="100"><path fill="#ADADAD" d="M77.428 79.111h-2.465a8.053 8.053 0 0 0 2.316-5.659c0-1.086-.73-2.003-1.725-2.289v-2.027c0-.146-.016-.29-.039-.434.578-.51.961-1.339.961-2.257 0-.491-.031-1.171-.111-1.717.154-.334.236-.696.236-1.077 0-.33-.064-.702-.182-1.067a2.373 2.373 0 0 0 .859-1.828c0-1.273-.521-4.117-2.482-6.707a1.028 1.028 0 0 0-1.436-.197 1.024 1.024 0 0 0-.199 1.435c2.041 2.701 2.066 5.442 2.066 5.47 0 .184-.15.331-.334.331H44.187a.33.33 0 0 1-.332-.331c0-.029.026-2.971 2.291-5.758 1.469-1.805 3.499-3.122 6.067-3.938.088-.016.17-.043.248-.076 1.611-.488 3.428-.782 5.449-.884h.006c.033 0 .066-.004.1-.007a31.532 31.532 0 0 1 1.525-.037c4.217.003 7.684.785 10.307 2.32a1.023 1.023 0 1 0 1.037-1.766c-2.939-1.726-6.756-2.601-11.344-2.603-.158 0-.314.002-.471.006l.961-8.303h.426a2.187 2.187 0 0 0 2.186-2.185v-3.175c0-1.203-.98-2.184-2.186-2.184h-2.066l-.502-2.516a1.811 1.811 0 0 0-1.764-1.467H44.304v-8.419c0-.105.058-.197.14-.229l5.894-2.186a1.024 1.024 0 0 0-.712-1.921l-5.896 2.189a2.293 2.293 0 0 0-1.474 2.147v8.419h-11.95c-.852 0-1.594.617-1.763 1.467l-.501 2.516h-2.067c-1.204 0-2.186.98-2.186 2.184v3.175c0 1.205.981 2.185 2.186 2.185h.426l4.565 39.4h-8.904a2.468 2.468 0 0 0-2.464 2.465v.933a2.467 2.467 0 0 0 2.464 2.465h55.366a2.466 2.466 0 0 0 2.465-2.465v-.933a2.467 2.467 0 0 0-2.465-2.465zM44.626 63.138h29.817c.068.199.107.388.107.514a.47.47 0 0 1-.186.388c-.266.229-.896.449-1.807.315-.555-.082-.824-.225-1.17-.408-.479-.251-1.07-.566-2.199-.566-1.088 0-1.691.362-2.135.628-.35.211-.563.336-1.082.336-.521 0-.732-.125-1.084-.336-.441-.266-1.047-.628-2.135-.628s-1.693.362-2.137.628c-.35.211-.561.336-1.084.336-.52 0-.73-.125-1.082-.336-.441-.266-1.047-.628-2.137-.628-1.086 0-1.693.362-2.135.628-.35.211-.561.336-1.082.336s-.732-.125-1.084-.336c-.441-.266-1.047-.628-2.135-.628-1.127 0-1.722.315-2.198.566-.345.184-.616.326-1.169.408-.911.134-1.542-.086-1.808-.315a.827.827 0 0 1-.083-.086.45.45 0 0 1-.103-.302c.005-.127.041-.315.111-.514zm27.962 4.04c-.611 0-1.211.249-1.639.687l-2.047 2.085a.917.917 0 0 1-1.248.052l-2.652-2.271a2.296 2.296 0 0 0-1.494-.553H45.025c-.092-.141-.23-.435-.311-.875a.25.25 0 0 1-.004-.021c.629.173 1.345.209 2.099.101.902-.135 1.417-.406 1.831-.624.387-.206.62-.33 1.239-.33.521 0 .731.126 1.082.337.443.266 1.048.628 2.136.628s1.693-.362 2.135-.628c.352-.211.563-.337 1.084-.337s.732.126 1.084.337c.441.266 1.047.628 2.135.628s1.693-.362 2.135-.628c.352-.211.563-.337 1.084-.337s.732.126 1.084.337c.441.266 1.047.628 2.135.628s1.693-.362 2.135-.628c.352-.211.563-.337 1.084-.337.617 0 .852.124 1.238.33.414.218.928.489 1.832.624.287.041.568.061.84.061.471 0 .914-.063 1.322-.182.002.06.002.123.002.182 0 .39-.174.657-.268.734h-1.57zm.914 2.048v1.845h-2.828l1.738-1.77a.241.241 0 0 1 .176-.075h.914zM65.75 71.07H45.592v-1.845h17.916a.25.25 0 0 1 .16.06l2.082 1.785zm-21.563 2.049h30.709c.182 0 .332.149.332.33a6.023 6.023 0 0 1-3.959 5.662H47.814a6.02 6.02 0 0 1-3.959-5.662c0-.18.148-.33.332-.33zm-.067 5.992h-2.165l-.11-4.883a8.055 8.055 0 0 0 2.275 4.883zm.942-25.991c-.174.19-.344.386-.506.585-2.17 2.673-2.75 5.689-2.75 7.051 0 .729.33 1.383.849 1.82-.118.368-.186.74-.186 1.075 0 .381.082.743.237 1.074-.282 1.249.06 2.763.618 3.599.085.127.174.235.265.33a2.64 2.64 0 0 0-.046.481v2.025a2.385 2.385 0 0 0-1.722 2.026l-.754-33.477h4.295l-.3 13.411zm6.001-3.839c-1.458.514-2.762 1.176-3.91 1.995l.261-11.565h4.293l-.644 9.57zm5.933-1.177a25.93 25.93 0 0 0-3.84.572l.605-8.965h4.207l-.972 8.393zM25.975 37.662a.137.137 0 0 1-.136-.136v-3.175c0-.075.062-.136.136-.136h6.396a1.023 1.023 0 1 0 0-2.047h-2.238l.384-1.934h25.4l.385 1.934H37.138a1.023 1.023 0 1 0 0 2.047h23.319c.074 0 .137.061.137.136v3.175a.138.138 0 0 1-.137.136H25.975zm13.93 41.449h-2.521l-2.659-39.4h4.294l.886 39.4zm-11.441-39.4h4.207l2.659 39.4h-2.303l-4.563-39.4zm49.38 42.798a.415.415 0 0 1-.416.415H22.062a.416.416 0 0 1-.415-.415v-.933c0-.229.187-.413.415-.413h55.366c.23 0 .416.185.416.413v.933z"/></svg>