<svg xmlns="http://www.w3.org/2000/svg" width="100" height="100"><path fill="#ADADAD" d="M38.99 39.178a1.073 1.073 0 0 0-1.506-.179 6.833 6.833 0 0 0-1.221 1.247 1.073 1.073 0 0 0 .854 1.718c.325 0 .646-.147.855-.426a4.69 4.69 0 0 1 .84-.855 1.07 1.07 0 0 0 .178-1.505zM37.037 44.33c0-.2.012-.402.038-.6a1.072 1.072 0 1 0-2.126-.275 6.798 6.798 0 0 0 0 1.745 1.07 1.07 0 1 0 2.126-.274 4.376 4.376 0 0 1-.038-.596zM47.101 40.252a6.807 6.807 0 0 0-1.221-1.248 1.072 1.072 0 1 0-1.328 1.682c.314.248.596.536.838.856a1.07 1.07 0 0 0 1.5.211 1.072 1.072 0 0 0 .211-1.501zM48.411 43.461a1.072 1.072 0 0 0-2.126.273 4.734 4.734 0 0 1 0 1.198 1.07 1.07 0 0 0 1.064 1.209c.531 0 .991-.394 1.062-.934a6.58 6.58 0 0 0 0-1.746zM55.465 30.203a4.693 4.693 0 0 1-.012-1.196 1.072 1.072 0 0 0-2.128-.252 6.834 6.834 0 0 0 .02 1.744c.082.586.623.995 1.207.915a1.074 1.074 0 0 0 .913-1.211zM74.684 35.168h-4.285c-1.773 0-3.217 1.442-3.217 3.215s1.445 3.215 3.217 3.215a1.071 1.071 0 1 0 0-2.142 1.072 1.072 0 0 1 0-2.142h4.285a1.071 1.071 0 0 1 0 2.142 1.07 1.07 0 1 0 0 2.142c1.773 0 3.215-1.442 3.215-3.215s-1.442-3.215-3.215-3.215z"/><path fill="#ADADAD" d="M80.514 30.673c-.172 0-2.279.622-3.43-.714-2.832-3.129-8.398-2.518-10.484 1.217l-.002.002a2.291 2.291 0 0 1-2.281 1.156L53.779 21.799a1.073 1.073 0 0 0-1.516 0c-1.236 1.475-2.165 2.284-2.866 4.824v.002c-1.742-.558-3.607-.416-5.153.384l-2.378-2.376a3.218 3.218 0 0 0-4.547 0 3.206 3.206 0 0 0-.924 2.592c-2.439-.014-4.826 1.289-6.001 3.484a3.45 3.45 0 0 1-.667.888 1.072 1.072 0 1 0 1.466 1.564 5.565 5.565 0 0 0 1.09-1.439c1.031-1.925 3.562-2.854 5.642-2.071 1.074.401 1.948-.95 1.136-1.761l-.225-.227a1.071 1.071 0 1 1 1.516-1.516c3.274 3.276 3.342 3.194 3.342 3.789 0 .962-1.163 1.422-1.827.759a1.071 1.071 0 1 0-1.515 1.515 3.194 3.194 0 0 0 2.272.939 3.204 3.204 0 0 0 3.211-3.213c0-.415-.08-.817-.229-1.191 1.051-.41 2.297-.413 3.42.02a11.053 11.053 0 0 0 6.2 10.792 2.246 2.246 0 0 1-1.508 1.077l-.012.002c-.5.098-.984.262-1.445.478-1.393-4.521-5.61-7.816-10.582-7.816-4.861 0-8.997 3.15-10.482 7.515a1.045 1.045 0 0 0-.302-.605 3.188 3.188 0 0 0-2.273-.939c-.862 0-1.669.333-2.274.939l-3.03 3.031a3.218 3.218 0 0 0 0 4.545 1.07 1.07 0 1 0 1.515-1.515 1.074 1.074 0 0 1 0-1.515l3.031-3.032c.2-.199.47-.311.759-.311.288 0 .557.109.758.312a1.073 1.073 0 0 0 1.562-.051 11.07 11.07 0 0 0 .374 6.587h-9.361c-1.577-.649-2.317-2.128-2.155-3.536.12-1.017-.179-2.482-2.292-3.693-.427-.242-.771-.611-.947-1.025-.62-1.411.984-2.671 2.462-2.332 1.735.382 3.206.002 4.135-1.06 1.134-1.263 3.516-1.003 4.36.519a1.073 1.073 0 0 0 1.876-1.04c-1.556-2.8-5.704-3.276-7.839-.899-.513.583-1.409.533-2.064.389-1.608-.367-3.317.208-4.353 1.463-1.614 1.954-.82 4.639 1.309 5.848 1.322.758 1.249 1.377 1.225 1.583a5.568 5.568 0 0 0 1.126 4.01 5.254 5.254 0 0 0-2.676 1.874 5.319 5.319 0 0 0-.884 4.688c1.889 6.696 6.993 12.533 14.4 16.493a8.003 8.003 0 0 0 2.479 5.184 8.1 8.1 0 0 0 5.614 2.253h25.336c2.096 0 4.09-.8 5.615-2.253a8.007 8.007 0 0 0 2.477-5.182c7.396-3.954 12.496-9.782 14.391-16.469a5.34 5.34 0 0 0-.881-4.717 5.22 5.22 0 0 0-4.195-2.097H59.332a6.527 6.527 0 0 1 6.289-4.714h.006c2.025 0 3.906.92 5.162 2.523a1.07 1.07 0 0 0 1.504.183 1.072 1.072 0 0 0 .186-1.504 8.684 8.684 0 0 0-12.702-1.082 8.686 8.686 0 0 0-2.652 4.593h-6.481c-.338-1.385.048-2.823.911-3.911 1.76-2.221 3.266-1.024 5.027-3.021.305-.346.52-.691.674-1.021.303-.648.375-1.389.436-2.102.221-2.487 2.898-4.623 5.656-3.883 2.627.764 4.82-1.158 5.125-2.1 1.391-2.482 5.205-2.842 7.021-.823a4.488 4.488 0 0 0 1.762 1.218c1.477.563 3.301.298 3.732.149a3.776 3.776 0 0 1 3.289.829c1.805 1.589.949 3.838-.789 4.818l-.002.001c-1.896 1.083-3.342 2.675-3.057 4.823.229 2.049-.67 2.49-.309 3.316.383.868 1.635.849 1.98-.045.746-1.929.441-3.609.441-3.767.004-.471.156-.856.51-1.29.328-.401.842-.807 1.488-1.174l.002-.002c1.109-.631 1.986-1.588 2.465-2.69.279-.632.42-1.285.42-1.941.002-3.277-3.496-5.757-6.912-4.97zM41.68 35.439c4.257 0 7.827 2.997 8.714 6.992a6.879 6.879 0 0 0-2.017 4.816c0 .342.027.676.08 1.009h-1.244c.535-1.156-1.057-2.116-1.827-1.096a4.678 4.678 0 0 1-.838.855 1.074 1.074 0 0 0-.223.24h-1.573v-.109a3.934 3.934 0 0 0 2.856-3.778 1.071 1.071 0 1 0-2.142 0c0 .984-.801 1.786-1.786 1.786a1.789 1.789 0 0 1-1.785-1.786 1.79 1.79 0 0 1 1.785-1.787c.522 0 .957-.373 1.052-.868a.172.172 0 0 1 .021.007v-3.066a1.071 1.071 0 1 0-2.143 0v1.936a3.938 3.938 0 0 0-2.858 3.779 3.935 3.935 0 0 0 2.858 3.778v.109h-1.575a1.082 1.082 0 0 0-.226-.243 4.755 4.755 0 0 1-.839-.856c-.771-1.024-2.368-.057-1.825 1.1h-2.498a8.863 8.863 0 0 1-.896-3.888c-.001-4.924 4.004-8.93 8.929-8.93zm38.793 14.96a3.09 3.09 0 0 1 2.486 1.247c.617.815.809 1.851.529 2.839-1.76 6.207-6.6 11.639-13.637 15.318H34.966a1.072 1.072 0 0 0 0 2.141h33.979c-.512 2.761-2.988 4.886-5.881 4.886H37.73c-3.182 0-5.859-2.569-5.972-5.727-.01-.241.026-.533-.213-.862a1.12 1.12 0 0 0-.375-.322c-7.173-3.686-12.098-9.175-13.87-15.457a3.186 3.186 0 0 1 .529-2.814 3.111 3.111 0 0 1 2.493-1.249h60.151zM57.617 33.891c-.139-.626-.557-.58-1.238-1.464a1.068 1.068 0 0 0-1.502-.193 1.07 1.07 0 0 0-.193 1.502c.342.444.754.864 1.232 1.235.184.141.398.214.615.222a6.239 6.239 0 0 0-.881 2.165c-4.806-2.726-5.929-9.051-2.613-13.271l3.592 3.593a3.932 3.932 0 0 0 .652 4.694 1.072 1.072 0 1 0 1.518-1.516 1.78 1.78 0 0 1-.505-1.514l2.781 2.78c-1.229.229-2.411.8-3.458 1.767z"/></svg>