<svg xmlns="http://www.w3.org/2000/svg" width="100" height="100"><g fill="#ADADAD"><path d="M82.163 58.292l-.765-6.41a1.273 1.273 0 0 0-1.393-1.115c-2.529.259-4.833-1.585-5.134-4.108-.301-2.525 1.503-4.86 4.022-5.203a1.272 1.272 0 0 0 1.09-1.411l-.765-6.41a4.156 4.156 0 0 0-1.564-2.787 4.155 4.155 0 0 0-3.076-.864L29.91 35.317a4.15 4.15 0 0 0-2.766 1.538h-5.889a4.18 4.18 0 0 0-4.175 4.176v6.454c0 .695.557 1.26 1.25 1.272 2.542.043 4.61 2.146 4.61 4.688s-2.068 4.646-4.61 4.689a1.272 1.272 0 0 0-1.25 1.271v6.457a4.18 4.18 0 0 0 4.175 4.175H66.24a4.18 4.18 0 0 0 4.175-4.175v-1.963l8.095-.966a4.156 4.156 0 0 0 2.787-1.563 4.15 4.15 0 0 0 .866-3.078zm-14.289 3.349v4.221c0 .899-.732 1.631-1.632 1.631h-7.886V65.11a1.27 1.27 0 1 0-2.543 0v2.384H21.257a1.633 1.633 0 0 1-1.632-1.631V60.55a7.19 7.19 0 0 0 3.782-2.029c1.34-1.361 2.078-3.163 2.078-5.074s-.738-3.712-2.078-5.074a7.194 7.194 0 0 0-3.782-2.029v-5.312c0-.9.732-1.633 1.632-1.633h34.557v15.485a1.271 1.271 0 1 0 2.542 0V39.396h7.886c.899 0 1.632.732 1.632 1.633v5.312a7.2 7.2 0 0 0-3.782 2.029c-1.341 1.362-2.078 3.163-2.078 5.074s.737 3.713 2.078 5.074a7.184 7.184 0 0 0 3.782 2.029v1.094zM79.3 59.796c-.27.342-.657.56-1.089.611l-7.794.929v-1.932c0-.693-.557-1.259-1.25-1.271-2.543-.043-4.61-2.147-4.61-4.689 0-2.543 2.067-4.646 4.61-4.688a1.273 1.273 0 0 0 1.25-1.272V41.03a4.18 4.18 0 0 0-4.175-4.177H38.483l36.396-4.344c.434-.052.86.068 1.203.338s.56.656.611 1.089l.63 5.275a7.196 7.196 0 0 0-3.515 2.462 7.198 7.198 0 0 0-1.463 5.286 7.198 7.198 0 0 0 2.665 4.793 7.198 7.198 0 0 0 3.995 1.566l.631 5.274c.052.434-.067.861-.336 1.204z"/><path d="M58.259 59.509a1.311 1.311 0 0 0-.274-.413 1.262 1.262 0 0 0-.413-.273 1.217 1.217 0 0 0-.238-.074 1.299 1.299 0 0 0-.497 0 1.328 1.328 0 0 0-.649.347 1.235 1.235 0 0 0-.276.413 1.317 1.317 0 0 0-.096.486 1.287 1.287 0 0 0 .213.706c.047.071.1.134.159.192a1.227 1.227 0 0 0 .412.276c.077.032.156.056.237.071a1.173 1.173 0 0 0 .497 0 1.21 1.21 0 0 0 .458-.188 1.285 1.285 0 0 0 .467-.572 1.12 1.12 0 0 0 .072-.237 1.148 1.148 0 0 0 0-.495 1.242 1.242 0 0 0-.072-.239zM47.839 50.155l-5.586-.811-2.498-5.063a1.272 1.272 0 0 0-2.282 0l-2.198 4.454-.3.608-2.115.307-3.471.504a1.275 1.275 0 0 0-.705 2.171l3.364 3.278.678.661-.385 2.242-.57 3.321a1.272 1.272 0 0 0 1.846 1.341l4.997-2.627 4.996 2.627a1.266 1.266 0 0 0 1.339-.096c.393-.283.588-.767.506-1.244l-.954-5.563 4.043-3.94a1.273 1.273 0 0 0-.705-2.17zm-5.592 4.756c-.3.292-.437.713-.365 1.126l.631 3.683-3.307-1.738a1.271 1.271 0 0 0-1.184 0l-3.308 1.738.631-3.683c.033-.19.02-.38-.031-.56a1.265 1.265 0 0 0-.334-.566l-1.567-1.527-1.108-1.081 1.278-.186 2.419-.353c.039-.006.076-.014.113-.021.365-.088.677-.333.845-.674l1.654-3.351 1.653 3.351c.186.375.543.637.958.695l3.697.538-2.675 2.609z"/></g></svg>