<svg xmlns="http://www.w3.org/2000/svg" width="100" height="100"><path fill="#ADADAD" d="M67.709 36.482c-.736-2.285-2.675-3.779-5.405-4.221.748-1.365 1.26-3.445.594-5.76-1.125-3.906-4.861-3.955-6.893-3.973.857-1.652 1.699-4.26 1.104-6.855-.41-1.785-1.734-4.123-5.711-5.121-2.375-.598-4.882-.508-6.164-.402a1.322 1.322 0 0 0-1.206 1.156c-.071.625.3 1.199.906 1.396.922.297 2.087.932 2.396 2.256.375 1.611-.16 3.885-7.693 7.189-2.55 1.117-4.11 2.697-4.637 4.693-.621 2.352.359 4.664 1.328 6.229a8.355 8.355 0 0 0-2.543 1.184c-1.622 1.141-2.484 2.736-2.495 4.617-.013 2.342.766 3.902 1.689 4.932a2.044 2.044 0 0 0-.231.945v1.52a6.043 6.043 0 0 0 4.447 5.82l1.67 6.227.001.002 5.46 20.359v.002l2.461 9.176a2.966 2.966 0 0 0 2.896 2.221c1.376 0 2.54-.893 2.896-2.223l9.592-35.764a6.041 6.041 0 0 0 4.448-5.82v-1.52c0-.33-.078-.639-.217-.916 1.336-1.352 2.494-3.665 1.307-7.349zM50.313 87.246c-.117.436-.48.484-.631.484s-.516-.049-.633-.484l-1.83-6.828a89.428 89.428 0 0 0 4.459 1.738l-1.365 5.09zm3.95-14.726a65.646 65.646 0 0 1-1.035-.391 1.172 1.172 0 1 0-.842 2.19c.418.16.842.318 1.268.475l-1.365 5.092a88.43 88.43 0 0 1-5.844-2.357l-1.783-6.65a75.11 75.11 0 0 0 2.553 1.246 1.173 1.173 0 0 0 .991-2.126 78.385 78.385 0 0 1-4.37-2.209l-1.901-7.088a73.291 73.291 0 0 0 13.679 6.791l-1.351 5.027zm1.957-7.301a70.548 70.548 0 0 1-15.205-7.938l-1.335-4.979h2.99c4.51 3.244 9.507 5.924 14.876 7.975l-1.326 4.942zM58.156 58a63.675 63.675 0 0 1-11.31-5.697h12.838L58.156 58zm6.001-15.316H44.396a1.171 1.171 0 1 0 0 2.344h19.876v1.24a3.695 3.695 0 0 1-3.199 3.656h-.002c-.082.012-.164.02-.244.025h-.008c-.081.006-.16.008-.237.008H38.783c-.078 0-.157-.002-.238-.008h-.008a4.296 4.296 0 0 1-.244-.025h-.002a3.694 3.694 0 0 1-3.199-3.656v-1.24h3.813a1.172 1.172 0 0 0 0-2.344h-3.709c-1.047-.836-1.572-2.111-1.563-3.799.015-2.674 3.038-3.6 4.095-3.713.05-.004.097-.016.145-.025.473.58 1.01 1.205 1.428 1.6a1.176 1.176 0 0 0 1.657-.053 1.17 1.17 0 0 0-.052-1.656c-.637-.6-1.828-2.129-2.25-2.691-.72-1.037-1.875-3.072-1.391-4.906.335-1.27 1.449-2.328 3.313-3.145 4.787-2.1 10.141-5.119 9.034-9.867a4.969 4.969 0 0 0-.926-1.947c2.543.213 5.523 1.049 6.137 3.719.496 2.164-.395 4.377-1.055 5.535-.453.75-1.931 2.807-3.439 3.508a1.17 1.17 0 1 0 .987 2.126c1.231-.57 2.319-1.633 3.114-2.574.031.006.063.014.097.018.425.055.911.059 1.427.063 2.367.02 4.09.193 4.691 2.277.502 1.748.014 3.289-.475 4.117-.244.328-1.59 2.098-3.332 3.527a1.173 1.173 0 0 0 1.486 1.812 21.67 21.67 0 0 0 2.264-2.174c.102.023.205.037.311.043 1.709.063 3.889.588 4.578 2.725.794 2.462.363 4.259-1.32 5.48z"/></svg>