<svg xmlns="http://www.w3.org/2000/svg" width="100" height="100"><path fill="#ADADAD" d="M22.966 80.036h53.56a3.56 3.56 0 0 0 3.557-3.555V32.402c0-.655-.531-1.186-1.186-1.186h-8.295c0-6.532-5.315-11.849-11.849-11.849-6.547 0-11.851 5.297-11.851 11.849h-9.006c-.655 0-1.187.53-1.187 1.186v13.745H20.596c-.654 0-1.185.529-1.185 1.186v29.148a3.56 3.56 0 0 0 3.555 3.555zm-1.185-3.555v-4.266h27.491v4.266c0 .653-.531 1.186-1.186 1.186h-25.12a1.187 1.187 0 0 1-1.185-1.186zm54.744 1.186H51.439a3.56 3.56 0 0 0 .204-1.186v-4.266h26.068v4.266a1.186 1.186 0 0 1-1.186 1.186zm-17.772-55.93c5.226 0 9.479 4.253 9.479 9.479h-18.96a9.474 9.474 0 0 1 9.481-9.479zm-19.671 11.85h7.82v5.451h-1.186a1.185 1.185 0 1 0 0 2.37h4.741a1.185 1.185 0 1 0 0-2.37h-1.186v-5.451h18.96v5.451h-1.186a1.185 1.185 0 1 0 0 2.37h4.74a1.186 1.186 0 1 0 0-2.37h-1.186v-5.451h7.11v36.259H51.644V47.333c0-.656-.53-1.186-1.186-1.186H39.082v-12.56zm10.19 14.93v21.329H21.781V48.517h27.491z"/></svg>